<svg version="1.1" id="Layer_1" xmlns="http://www.w3.org/2000/svg" x="0" y="0" viewBox="0 0 701.2 419.9" style="enable-background:new 0 0 701.2 419.9" xml:space="preserve"><style>.st2{fill:#ebebeb}.st3{fill:#010101}.st4{fill:#fff}</style><path style="fill:#e44f26" d="M27.1 386.1 0 82.5h297.5l-27.1 303.6-121.9 33.8z"/><path style="fill:#f1662a" d="m148.7 394 98.5-27.2 23.1-259.5H148.7z"/><path class="st2" d="M148.7 219.9H99.4L96 181.8h52.7v-37.2H55.4l.8 10 9.2 102.6h83.3zM148.7 316.7h-.1l-41.5-11.2-2.7-29.7H67.1l5.2 58.5 76.3 21.1h.1z"/><path class="st3" d="M27.7 0h18.9v18.7h17.3V0h18.9v56.6H63.9v-19H46.6v19H27.7V0zM107.7 18.8H91.1V0h52.3v18.8h-16.7v37.8h-18.9l-.1-37.8zM151.6 0h19.7l12.1 19.9L195.6 0h19.7v56.6h-18.8v-28l-13 20.1h-.3l-13-20.1v28.1h-18.5L151.6 0zM224.8 0h18.9v37.9h26.6v18.7h-45.5V0z"/><path class="st4" d="M148.6 219.9v37.3h45.8l-4.3 48.3-41.5 11.2v38.7l76.3-21.1.6-6.3 8.7-98.1 1-10h-10.1zM148.6 144.6v37.2H238.5l.8-8.4 1.7-18.8.9-10z"/><path d="M636.9 15.5h-24.7l25.7 27.9v13.3H585V41.1h25.7L585 13.3V0h51.9v15.5zm-62.4 0h-24.7l25.7 27.9v13.3h-52.9V41.1h25.7l-25.7-27.9V0h51.9v15.5zm-61.8.7h-26.6v24.3h26.6v16.2h-45.6V0h45.6v16.2z" style="fill:#131313"/><path style="fill:#1572b6" d="m430.8 386.2-27-303.7h297.4l-27.1 303.6-121.8 33.8z"/><path style="fill:#33a9dc" d="m552.5 394.1 98.4-27.3 23.2-259.4H552.5z"/><path class="st4" d="M552.5 217.4h49.3l3.4-38.2h-52.7V142H645.9l-.9 10-9.2 102.6h-83.3z"/><path class="st2" d="M552.7 314.1h-.2l-41.4-11.2-2.7-29.7H471l5.3 58.5 76.2 21.2.2-.1z"/><path class="st4" d="m598.6 253-4.5 49.9-41.5 11.2v38.7l76.3-21.1.6-6.3L636 253z"/><path class="st2" d="M552.6 142v37.2H462.7l-.8-8.3-1.7-18.9-.9-10zM552.5 217.4v37.2h-41l-.7-8.4-1.7-18.8-.9-10z"/></svg>